# xmcd
#
# Track frame offsets:
#	300
#	14857
#	36499
#	56982
#	74073
#	99188
#	105267
#	119739
#	138457
#	150986
#	167441
#	182748
#	202843
#	224857
#	305919
#
# Disc length: 4320 seconds
#
# Revision: 0
# Processed by: cddbd v1.5PL3 Copyright (c) Steve Scherf et al.
# Submitted via: dBpowerAMP V4.0
#
DISCID=e710dc0f
DTITLE=John Henry - charmiin' Billy
DYEAR=2003
DGENRE=Country
TTITLE0=Spoilin'
TTITLE1=C'mon Home
TTITLE2=Orphan Lake
TTITLE3=I Like......
TTITLE4=Dirt Track
TTITLE5=Orphan Reprise
TTITLE6=$50 Whore
TTITLE7=Mascara Dawn
TTITLE8=Destiny
TTITLE9=Watchtower Waltz
TTITLE10=First Light
TTITLE11=Personal
TTITLE12=Play the Harp
TTITLE13=Let's Go On a Tear
TTITLE14=Aryan Nation
EXTD=
EXTT0=
EXTT1=
EXTT2=
EXTT3=
EXTT4=
EXTT5=
EXTT6=
EXTT7=
EXTT8=
EXTT9=
EXTT10=
EXTT11=
EXTT12=
EXTT13=
EXTT14=
PLAYORDER=
